# This file uses centimeters as units for non-parametric coordinates.

mtllib Broadleaves_Mobile2.mtl
g default
v 0.877713 -1.065048 0.099300
v -0.008689 -0.915400 0.279470
v -0.114168 -1.762741 0.168600
v -0.831607 -1.172543 0.099300
v 0.000000 0.000000 0.000000
vt 0.000500 0.459699
vt 0.534302 0.489500
vt 0.615588 0.865474
vt 0.928276 0.597828
vt 0.507650 0.000500
vn -0.408196 0.002300 0.912891
vn -0.047002 -0.144107 0.988445
vn 0.013601 0.272516 0.962055
vn 0.013601 0.272516 0.962055
vn -0.047002 -0.144107 0.988445
vn 0.562405 -0.149101 0.813308
vn -0.408196 0.002300 0.912891
vn 0.006400 -0.433109 0.901319
vn -0.047002 -0.144107 0.988445
vn -0.047002 -0.144107 0.988445
vn 0.006400 -0.433109 0.901319
vn 0.562405 -0.149101 0.813308
s off
g Broadleaves_Mobile1:diamond
usemtl Broadleaves_Mobile:initialShadingGroup
f 1/1/1 2/2/2 3/3/3
f 3/3/4 2/2/5 4/4/6
f 1/1/7 5/5/8 2/2/9
f 2/2/10 5/5/11 4/4/12
